<svg width="41" height="41" viewBox="0 0 41 41" fill="none" xmlns="http://www.w3.org/2000/svg">
<path d="M34.5749 0.642578H6.17579C2.93143 0.642578 0.291992 3.27494 0.291992 6.51061V34.8336C0.291992 38.0693 2.93143 40.7017 6.17579 40.7017H34.5749C37.8193 40.7017 40.4587 38.0693 40.4587 34.8336V6.51061C40.4587 3.27494 37.8193 0.642578 34.5749 0.642578ZM38.1052 34.8336C38.1052 36.775 36.5215 38.3544 34.5749 38.3544H6.17579C4.22923 38.3544 2.64551 36.775 2.64551 34.8336V6.51061C2.64551 4.56927 4.22923 2.98979 6.17579 2.98979H34.5749C36.5215 2.98979 38.1052 4.56927 38.1052 6.51061V34.8336Z" fill="#070707" stroke="#070707" stroke-width="0.5"/>
<path d="M26.625 16.0098C27.5179 16.0358 28.3645 16.2371 29.127 16.7168C30.1041 17.3318 30.6996 18.2318 31.0488 19.3125C31.3211 20.155 31.4112 21.0251 31.4121 21.9062C31.4143 24.4448 31.4124 26.9839 31.4121 29.5225C31.4121 29.5672 31.4083 29.6115 31.4053 29.6631H27.124V22.4766C27.124 21.9791 27.0871 21.4871 26.9619 21.001C26.7026 19.9953 26.0117 19.521 25.2744 19.418C24.5385 19.3152 23.756 19.5822 23.3096 20.0596C22.8628 20.5375 22.569 21.0793 22.5566 21.749C22.5539 21.9059 22.5449 22.0657 22.5449 22.2236C22.544 24.6395 22.5439 27.0558 22.5439 29.4717V29.6621H18.2715V16.3281H22.542V18.1152L22.5518 18.1191C22.5625 18.1238 22.5744 18.1299 22.5859 18.1348L22.5967 18.1387L22.6045 18.1289C22.6349 18.0877 22.667 18.0467 22.6973 18.0049C23.1277 17.407 23.621 16.8779 24.2764 16.5205C25.0086 16.1209 25.8005 15.9859 26.625 16.0098Z" fill="#070707" stroke="#070707" stroke-width="0.0306072"/>
<path d="M15.6111 16.3242V29.6709H11.3611V16.3242H15.6111Z" fill="#070707" stroke="#070707" stroke-width="0.0306072"/>
<path d="M13.6689 9.67188C14.3391 9.67096 14.9111 9.90807 15.3154 10.3145C15.7197 10.7208 15.9576 11.297 15.96 11.9736C15.9621 12.6431 15.7226 13.2146 15.3125 13.6182C14.9025 14.0216 14.3208 14.2584 13.6377 14.2588C12.3053 14.2597 11.356 13.3077 11.3535 11.9688C11.3511 10.6291 12.3136 9.6738 13.6689 9.67188Z" fill="#070707" stroke="#070707" stroke-width="0.0306072"/>
</svg>
